<?xml version="1.0" standalone="no"?>
<!DOCTYPE svg PUBLIC "-//W3C//DTD SVG 20010904//EN"
 "http://www.w3.org/TR/2001/REC-SVG-20010904/DTD/svg10.dtd">
<svg version="1.0" xmlns="http://www.w3.org/2000/svg"
 width="558.000000pt" height="558.000000pt" viewBox="0 0 558.000000 558.000000"
 preserveAspectRatio="xMidYMid meet">
<metadata>
Created by potrace 1.11, written by Peter Selinger 2001-2013
</metadata>
<g transform="translate(0.000000,558.000000) scale(0.100000,-0.100000)"
fill="#000000" stroke="none">
<path d="M1090 4980 c0 -437 2 -484 30 -585 79 -291 223 -506 460 -686 95 -72
277 -167 380 -198 199 -61 248 -63 1465 -59 l1080 3 3 510 c2 362 0 522 -9
550 -14 50 -35 105 -65 173 -13 29 -24 55 -24 57 0 14 -109 178 -153 230 -146
176 -346 315 -557 388 -223 77 -221 77 -1502 77 l-1108 0 0 -460z"/>
<path d="M1094 3025 c-10 -24 19 -223 37 -257 5 -10 9 -30 9 -45 0 -16 7 -37
15 -47 8 -11 15 -28 15 -38 0 -10 4 -26 9 -36 5 -9 25 -48 43 -85 50 -104 52
-107 60 -107 5 0 8 -5 8 -10 0 -32 184 -236 268 -300 19 -14 40 -31 47 -37 8
-7 18 -13 24 -13 6 0 11 -4 11 -8 0 -7 31 -26 111 -67 10 -5 19 -13 19 -17 0
-5 9 -8 19 -8 11 0 22 -4 26 -9 3 -5 19 -12 35 -16 17 -4 30 -11 30 -16 0 -5
11 -9 24 -9 13 0 37 -7 52 -15 16 -8 39 -15 51 -15 12 0 25 -4 28 -10 3 -5 23
-10 44 -10 21 0 51 -5 67 -10 19 -7 443 -11 1192 -13 l1162 -2 0 608 0 607
-1700 0 c-1496 0 -1701 -2 -1706 -15z"/>
<path d="M1090 1405 c-23 -27 -1 -191 48 -355 94 -317 364 -625 667 -760 39
-17 78 -35 87 -40 10 -6 27 -10 37 -10 11 0 22 -4 25 -9 3 -5 18 -11 33 -14
16 -3 72 -15 126 -26 97 -21 119 -21 1248 -21 l1149 0 -2 623 -3 622 -1701 3
c-1483 2 -1703 0 -1714 -13z"/>
</g>
</svg>
